<svg xmlns="http://www.w3.org/2000/svg" width="200" height="200" viewBox="0 0 200 200">
    <g fill="none" fill-rule="evenodd">
        <path fill="#777" fill-rule="nonzero" d="M5 0a2 2 0 1 1 0 4 2 2 0 0 1 0-4zm27 0a2 2 0 1 1 0 4 2 2 0 0 1 0-4zm27 0a2 2 0 1 1 0 4 2 2 0 0 1 0-4z"/>
        <path fill="#333" d="M0 20h64v3H0z"/>
        <path fill-rule="nonzero" stroke="#333" stroke-linecap="square" d="M0 48l7.999-8 8 8 8-8 8 8 8-8 8 8 8-8 8 8" opacity=".5"/>
        <path fill="#555" d="M0 121h200v1H0z"/>
        <path fill-rule="nonzero" stroke="#DDD" stroke-linecap="square" d="M0 141.5h200"/>
        <path fill="#D0D0D0" d="M0 169h200v1H0z"/>
        <path fill="#FFF" stroke="#D0D0D0" d="M100.516 161.517l-7.983 7.983 7.983 7.983 7.983-7.983-7.983-7.983z"/>
        <g transform="translate(0 185)">
            <path fill="#D0D0D0" d="M0 4h85v1H0zM116 4h84v1h-84z"/>
            <circle cx="100.5" cy="4.5" r="4" fill="#FFF" stroke="#D0D0D0"/>
        </g>
        <g fill="#333" opacity=".3">
            <path d="M0 60h2v60H0z"/>
        </g>
    </g>
</svg>
